<svg xmlns="http://www.w3.org/2000/svg" width="28.469" height="28.469" viewBox="0 0 28.469 28.469">
	<rect width="28.469" height="28.469" fill="none" />
	<rect class="fill" width="8.303" height="8.303" rx="2" transform="translate(4.745 4.745)" />
	<path class="fill"
		d="M18.613,27.509h4.745a1.779,1.779,0,0,1,1.779,1.779v4.745a1.779,1.779,0,0,1-1.779,1.779H18.613a1.779,1.779,0,0,1-1.779-1.779V29.289A1.779,1.779,0,0,1,18.613,27.509ZM29.289,16.833h4.745a1.779,1.779,0,0,1,1.779,1.779v4.745a1.779,1.779,0,0,1-1.779,1.779H29.289a1.779,1.779,0,0,1-1.779-1.779V18.613A1.779,1.779,0,0,1,29.289,16.833Zm0,10.676h4.745a1.779,1.779,0,0,1,1.779,1.779v4.745a1.779,1.779,0,0,1-1.779,1.779H29.289a1.779,1.779,0,0,1-1.779-1.779V29.289A1.779,1.779,0,0,1,29.289,27.509Z"
		transform="translate(-12.089 -12.089)" fill-rule="evenodd" opacity="0.3" />
</svg>
