<svg xmlns="http://www.w3.org/2000/svg" width="29" height="29" viewBox="0 0 29 29">
	<g>
		<rect width="29" height="29" fill="none" />
		<path
			d="M31.377,20.656h.154a2.719,2.719,0,0,1,0,5.438h-.078a.6.6,0,0,0-.432,1.009l.054.054A2.72,2.72,0,1,1,27.229,31l-.047-.047a.6.6,0,0,0-1.016.422v.154a2.719,2.719,0,0,1-5.437,0,.633.633,0,0,0-.438-.621.586.586,0,0,0-.643.111l-.054.054a2.72,2.72,0,1,1-3.847-3.846l.047-.047a.6.6,0,0,0-.422-1.016h-.154a2.719,2.719,0,0,1,0-5.437.633.633,0,0,0,.621-.438.586.586,0,0,0-.111-.643l-.054-.054a2.72,2.72,0,1,1,3.846-3.847l.047.047a.589.589,0,0,0,.65.118l.13-.027a.587.587,0,0,0,.308-.512v-.154a2.719,2.719,0,0,1,5.438,0V15.3a.593.593,0,0,0,.366.543.586.586,0,0,0,.643-.111l.054-.054A2.72,2.72,0,1,1,31,19.521l-.047.047a.589.589,0,0,0-.118.65l.028.13A.587.587,0,0,0,31.377,20.656Z"
			transform="translate(-8.875 -8.875)" opacity="0.3" />
		<path d="M41.125,44.75A3.625,3.625,0,1,0,37.5,41.125,3.625,3.625,0,0,0,41.125,44.75Z"
			transform="translate(-26.625 -26.625)" fill-rule="evenodd" />
	</g>
</svg>
