<svg xmlns="http://www.w3.org/2000/svg" width="19" height="19" viewBox="0 0 19 19">
  <g id="trash" transform="translate(0 -0.29)">
    <rect width="19" height="19" transform="translate(0 0.29)" fill="none"/>
    <path d="M22.5,30h9.858l-.734,9.542A1.232,1.232,0,0,1,30.4,40.68H24.463a1.232,1.232,0,0,1-1.229-1.138Zm1.643,1.643L24.516,35l5.831-.046.368-3.314Z" transform="translate(-17.571 -23.428)" fill="#ff1d1d"/>
    <path d="M26.144,12.482v-.822a.411.411,0,0,0-.411-.411H23.268a.411.411,0,0,0-.411.411v.822h-3.7a.411.411,0,0,0-.411.411V13.3a.411.411,0,0,0,.411.411h10.68a.411.411,0,0,0,.411-.411v-.411a.411.411,0,0,0-.411-.411Z" transform="translate(-14.642 -8.785)" fill="#ff1d1d" fill-rule="evenodd" opacity="0.3"/>
  </g>
</svg>
