<svg xmlns="http://www.w3.org/2000/svg" width="25" height="25" viewBox="0 0 25 25">
	<g>
		<path d="M0,0H25V25H0Z" fill="none" fill-rule="evenodd" />
		<path class="fill"
			d="M18.542,14.458a3.125,3.125,0,1,1,3.125-3.125A3.125,3.125,0,0,1,18.542,14.458ZM9.167,11.333a4.167,4.167,0,1,1,4.167-4.167A4.167,4.167,0,0,1,9.167,11.333Z"
			transform="translate(0.208 0.125)" opacity="0.3" />
		<path class="fill"
			d="M18.335,15.084c3.548.039,6.446,1.833,6.664,5.624a.531.531,0,0,1-.565.625H20.417A10.371,10.371,0,0,0,18.335,15.084ZM0,20.5C.4,15.528,4.439,13,9.358,13c4.987,0,9.085,2.389,9.39,7.5a.716.716,0,0,1-.782.833H.758A1.153,1.153,0,0,1,0,20.5Z"
			transform="translate(0 0.542)" />
	</g>
</svg>
